<svg width="138" height="238" viewBox="0 0 138 238" fill="none" xmlns="http://www.w3.org/2000/svg">
<path id="Union" fill-rule="evenodd" clip-rule="evenodd" d="M38.0001 2H17.0001C8.70753 2 2.00351 8.69291 2.21485 16.9463C3.849 80.7646 14.6256 172.348 28.3955 225.337C30.0473 231.693 35.8734 236 42.4881 236H95.5121C102.127 236 107.953 231.693 109.605 225.337C123.375 172.348 134.151 80.7646 135.785 16.9463C135.997 8.69291 129.293 2 121 2H100H38.0001ZM38.0001 0H100H121C130.381 0 138.026 7.58364 137.785 16.9975C136.148 80.9183 125.359 172.661 111.54 225.84C110.038 231.62 105.534 235.886 100 237.399V238H95.5121H42.4881H38.0001V237.399C32.4663 235.886 27.962 231.62 26.4598 225.84C12.6407 172.661 1.85228 80.9183 0.215508 16.9975C-0.0255508 7.58364 7.61948 0 17.0001 0H38.0001Z" fill="white"/>
</svg>
