<svg width="24" height="24" viewBox="0 0 24 24" fill="none" xmlns="http://www.w3.org/2000/svg">
<g id="Frame">
<g id="Group">
<path id="19 glass of water" d="M20.0549 1.7475C19.9848 1.66981 19.8992 1.60765 19.8036 1.56502C19.708 1.5224 19.6046 1.50025 19.4999 1.5H4.49994C4.39528 1.50025 4.29183 1.5224 4.19625 1.56502C4.10066 1.60765 4.01506 1.66981 3.94494 1.7475C3.8748 1.82387 3.82125 1.91395 3.78769 2.01206C3.75413 2.11017 3.74127 2.21417 3.74994 2.3175L4.31244 8.25L5.58744 21.7875C5.60433 21.9745 5.69075 22.1483 5.82961 22.2747C5.96848 22.4011 6.14969 22.4708 6.33744 22.47H17.6699C17.8577 22.4708 18.0389 22.4011 18.1778 22.2747C18.3166 22.1483 18.403 21.9745 18.4199 21.7875L20.2499 2.3175C20.2586 2.21417 20.2457 2.11017 20.2122 2.01206C20.1786 1.91395 20.1251 1.82387 20.0549 1.7475ZM18.6749 3L18.1724 8.3925C16.6811 7.94872 15.2162 7.42037 13.7849 6.81C10.1924 5.31 7.78494 6.1725 5.71494 7.125L5.32494 3H18.6749ZM16.9799 21H7.01994L5.85744 8.7075C8.03244 7.6875 9.93744 6.8325 13.2149 8.19C14.7715 8.86448 16.3698 9.43816 17.9999 9.9075L16.9799 21Z" fill="#0B0526"/>
</g>
</g>
</svg>
