<svg width="24" height="24" viewBox="0 0 24 24" fill="none" xmlns="http://www.w3.org/2000/svg">
<g id="Frame">
<g id="Group">
<path id="19 glass of water" d="M20.0552 1.7475C19.9851 1.66981 19.8995 1.60765 19.8039 1.56502C19.7083 1.5224 19.6048 1.50025 19.5002 1.5H4.50018C4.39552 1.50025 4.29208 1.5224 4.19649 1.56502C4.10091 1.60765 4.0153 1.66981 3.94518 1.7475C3.87504 1.82387 3.8215 1.91395 3.78794 2.01206C3.75437 2.11017 3.74152 2.21417 3.75018 2.3175L4.31268 8.25L5.58768 21.7875C5.60458 21.9745 5.69099 22.1483 5.82986 22.2747C5.96872 22.4011 6.14993 22.4708 6.33768 22.47H17.6702C17.8579 22.4708 18.0391 22.4011 18.178 22.2747C18.3169 22.1483 18.4033 21.9745 18.4202 21.7875L20.2502 2.3175C20.2588 2.21417 20.246 2.11017 20.2124 2.01206C20.1789 1.91395 20.1253 1.82387 20.0552 1.7475ZM18.6752 3L18.1727 8.3925C16.6813 7.94872 15.2165 7.42037 13.7852 6.81C10.1927 5.31 7.78518 6.1725 5.71518 7.125L5.32518 3H18.6752ZM16.9802 21H7.02018L5.85768 8.7075C8.03268 7.6875 9.93768 6.8325 13.2152 8.19C14.7717 8.86448 16.37 9.43816 18.0002 9.9075L16.9802 21Z" fill="#C2C5F3"/>
</g>
</g>
</svg>
