<svg width="40" height="40" viewBox="0 0 40 40" fill="none" xmlns="http://www.w3.org/2000/svg">
<g id="plus.circle.24">
<g id="Shape">
<path fill-rule="evenodd" clip-rule="evenodd" d="M19.9999 34C27.7319 34 33.9999 27.732 33.9999 20C33.9999 12.268 27.7319 6.00001 19.9999 6.00001C12.2679 6.00001 5.99992 12.268 5.99992 20C5.99992 27.732 12.2679 34 19.9999 34ZM19.9999 36.6667C29.2047 36.6667 36.6666 29.2048 36.6666 20C36.6666 10.7953 29.2047 3.33334 19.9999 3.33334C10.7952 3.33334 3.33325 10.7953 3.33325 20C3.33325 29.2048 10.7952 36.6667 19.9999 36.6667Z" fill="#C2C5F3"/>
<path fill-rule="evenodd" clip-rule="evenodd" d="M19.9999 12C20.7363 12 21.3333 12.597 21.3333 13.3333V18.6667H26.6666C27.403 18.6667 27.9999 19.2636 27.9999 20C27.9999 20.7364 27.403 21.3333 26.6666 21.3333H21.3333V26.6667C21.3333 27.4031 20.7363 28 19.9999 28C19.2635 28 18.6666 27.4031 18.6666 26.6667V21.3333H13.3333C12.5969 21.3333 11.9999 20.7364 11.9999 20C11.9999 19.2636 12.5969 18.6667 13.3333 18.6667H18.6666V13.3333C18.6666 12.597 19.2635 12 19.9999 12Z" fill="#C2C5F3"/>
</g>
</g>
</svg>
