<svg width="24" height="32" viewBox="0 0 24 32" fill="none" xmlns="http://www.w3.org/2000/svg">
<path d="M13.5 2C13.5 1.17157 12.8284 0.5 12 0.5C11.1716 0.5 10.5 1.17157 10.5 2L13.5 2ZM10.9393 31.0607C11.5251 31.6464 12.4749 31.6464 13.0607 31.0607L22.6066 21.5147C23.1924 20.9289 23.1924 19.9792 22.6066 19.3934C22.0208 18.8076 21.0711 18.8076 20.4853 19.3934L12 27.8787L3.51472 19.3934C2.92893 18.8076 1.97919 18.8076 1.3934 19.3934C0.807612 19.9792 0.807612 20.9289 1.3934 21.5147L10.9393 31.0607ZM10.5 2L10.5 30L13.5 30L13.5 2L10.5 2Z" fill="white"/>
</svg>
