<svg width="16" height="16" viewBox="0 0 16 16" fill="none" xmlns="http://www.w3.org/2000/svg">
<g id="Frame" clip-path="url(#clip0_1052_7515)">
<g id="Group">
<path id="Vector" d="M7.10444 8.88447H1.90838C1.49668 8.88447 1.15979 9.2213 1.15979 9.63301V15.2515C1.15979 15.6632 1.49668 16.0001 1.90838 16.0001H7.19181C7.36792 16.0001 7.36792 15.8109 7.36792 15.8109V9.13884C7.36786 9.13884 7.36786 8.88447 7.10444 8.88447ZM14.0918 8.88447H8.90098C8.58483 8.88447 8.63216 9.21372 8.63216 9.21372V15.817C8.63216 15.817 8.6296 15.9999 8.81978 15.9999H14.0916C14.5034 15.9999 14.8402 15.6631 14.8402 15.2514V9.63301C14.8403 9.2213 14.5035 8.88447 14.0918 8.88447ZM7.36786 4.46372C7.36786 4.46372 7.36786 4.21007 7.11721 4.21007H1.06304C0.651335 4.21007 0.314453 4.54695 0.314453 4.9586V7.29529C0.314453 7.70699 0.651335 8.04382 1.06304 8.04382H7.13771C7.36786 8.04382 7.36786 7.84421 7.36786 7.84421V4.46372ZM14.937 4.21007H8.86357C8.63227 4.21007 8.63227 4.43046 8.63227 4.43046V7.84885C8.63227 7.84885 8.63227 8.04382 8.91347 8.04382H14.937C15.3487 8.04382 15.6856 7.70699 15.6856 7.29529V4.9586C15.6856 4.54695 15.3487 4.21007 14.937 4.21007ZM4.82175 3.65623C4.47925 3.65623 4.16642 3.62907 3.8921 3.57546C3.19532 3.43933 2.71642 3.17439 2.42802 2.76557C2.16962 2.39918 2.09054 1.9475 2.19291 1.42301C2.37223 0.50535 2.98851 0 3.92809 0C4.12694 0 4.34531 0.0229605 4.5772 0.0682817C5.16709 0.183521 5.92157 0.521766 6.59549 0.973068C7.73889 1.73884 7.79544 2.2149 7.7385 2.50641C7.65479 2.93475 7.25442 3.24082 6.51451 3.44217C6.01461 3.57819 5.39762 3.65623 4.82175 3.65623ZM3.92815 1.19978C3.56427 1.19978 3.43921 1.30144 3.37055 1.65305C3.31437 1.94052 3.38522 2.04092 3.40845 2.07392C3.50575 2.2119 3.75919 2.32698 4.12214 2.39782C4.31798 2.43611 4.55997 2.45634 4.8217 2.45634C5.39724 2.45634 5.90428 2.36913 6.24072 2.27375C6.26521 2.26682 6.30323 2.23786 6.26249 2.21359C5.82264 1.85528 5.01793 1.37681 4.34716 1.24576C4.19091 1.21533 4.04988 1.19978 3.92815 1.19978ZM11.1957 3.65623H11.1956C10.6197 3.65623 10.0028 3.57819 9.50286 3.44217C8.76289 3.24087 8.36258 2.93475 8.27887 2.50646C8.22198 2.21496 8.27843 1.73889 9.42193 0.973123C10.0957 0.52182 10.8502 0.183575 11.4402 0.0683362C11.6721 0.0230151 11.8905 5.45381e-05 12.0892 5.45381e-05C13.029 5.45381e-05 13.6452 0.505459 13.8244 1.42312C13.9268 1.94755 13.8478 2.39924 13.5893 2.76563C13.301 3.1745 12.8221 3.43939 12.1252 3.57552C11.8509 3.62902 11.5381 3.65623 11.1957 3.65623ZM9.76448 2.20617C9.72549 2.22881 9.74436 2.26453 9.76459 2.27037C10.1009 2.36706 10.6133 2.4564 11.1956 2.4564C11.4574 2.4564 11.6993 2.43616 11.8952 2.39788C12.2581 2.32698 12.5116 2.21196 12.6089 2.07397C12.6322 2.04098 12.7031 1.94057 12.6468 1.6531C12.5782 1.3015 12.453 1.19984 12.0891 1.19984C11.9674 1.19984 11.8265 1.21533 11.6702 1.24587C10.9993 1.37687 10.2043 1.8478 9.76448 2.20617Z" fill="#516DFF"/>
</g>
</g>
<defs>
<clipPath id="clip0_1052_7515">
<rect width="16" height="16" fill="white"/>
</clipPath>
</defs>
</svg>
