<svg xmlns="http://www.w3.org/2000/svg" width="20" height="20" viewBox="0 0 20 20" fill="none">
    <g clipPath="url(#clip0_906_408)">
        <path
                d="M10 0C8.02219 0 6.08879 0.58649 4.4443 1.6853C2.79981 2.78412 1.51809 4.3459 0.761209 6.17317C0.00433286 8.00043 -0.193701 10.0111 0.192152 11.9509C0.578004 13.8907 1.53041 15.6725 2.92894 17.0711C4.32746 18.4696 6.10929 19.422 8.0491 19.8079C9.98891 20.1937 11.9996 19.9957 13.8268 19.2388C15.6541 18.4819 17.2159 17.2002 18.3147 15.5557C19.4135 13.9112 20 11.9778 20 10C19.9971 7.34872 18.9426 4.80684 17.0679 2.9321C15.1932 1.05736 12.6513 0.00286757 10 0ZM10 16.6667C9.83519 16.6667 9.67407 16.6178 9.53703 16.5262C9.39999 16.4347 9.29318 16.3045 9.2301 16.1522C9.16703 16 9.15053 15.8324 9.18268 15.6708C9.21484 15.5091 9.29421 15.3606 9.41075 15.2441C9.52729 15.1275 9.67578 15.0482 9.83743 15.016C9.99908 14.9839 10.1666 15.0004 10.3189 15.0634C10.4712 15.1265 10.6013 15.2333 10.6929 15.3704C10.7845 15.5074 10.8333 15.6685 10.8333 15.8333C10.8333 16.0543 10.7455 16.2663 10.5893 16.4226C10.433 16.5789 10.221 16.6667 10 16.6667ZM11.6083 10.4217C11.3624 10.5754 11.1613 10.7912 11.0253 11.0474C10.8892 11.3035 10.823 11.591 10.8333 11.8808V12.5C10.8333 12.721 10.7455 12.933 10.5893 13.0893C10.433 13.2455 10.221 13.3333 10 13.3333C9.77899 13.3333 9.56703 13.2455 9.41075 13.0893C9.25447 12.933 9.16667 12.721 9.16667 12.5V11.8808C9.15436 11.2929 9.29964 10.7123 9.58744 10.1994C9.87524 9.68653 10.2951 9.26003 10.8033 8.96417C11.1112 8.79459 11.3576 8.532 11.5073 8.21395C11.657 7.8959 11.7023 7.53867 11.6367 7.19333C11.5717 6.86434 11.4102 6.56216 11.1727 6.32541C10.9352 6.08865 10.6325 5.92807 10.3033 5.86417C10.0631 5.8197 9.81603 5.8286 9.57962 5.89022C9.34321 5.95184 9.12323 6.06469 8.93527 6.22076C8.74731 6.37684 8.59596 6.57233 8.49194 6.7934C8.38792 7.01446 8.33378 7.25569 8.33334 7.5C8.33334 7.72101 8.24554 7.93298 8.08926 8.08926C7.93298 8.24554 7.72102 8.33333 7.5 8.33333C7.27899 8.33333 7.06703 8.24554 6.91075 8.08926C6.75447 7.93298 6.66667 7.72101 6.66667 7.5C6.66688 6.91209 6.82258 6.33469 7.11797 5.82638C7.41336 5.31806 7.83793 4.89691 8.34863 4.60566C8.85932 4.3144 9.43796 4.16339 10.0259 4.16795C10.6138 4.17251 11.19 4.33247 11.6961 4.63162C12.2022 4.93076 12.6202 5.35845 12.9077 5.87128C13.1951 6.38412 13.3419 6.96386 13.333 7.5517C13.324 8.13955 13.1598 8.71458 12.8569 9.21846C12.5541 9.72235 12.1233 10.138 11.6083 10.4217Z"
                fill="#4865CF"
        />
    </g>
    <defs>
        <clipPath id="clip0_906_408">
            <rect width="20" height="20" fill="white" />
        </clipPath>
    </defs>
</svg>
