<svg width="24" height="23" viewBox="0 0 24 23" fill="none" xmlns="http://www.w3.org/2000/svg">
<g id="Group">
<path id="Vector" d="M23.9999 8.48V20C23.9999 20.2652 23.8946 20.5196 23.707 20.7071C23.5195 20.8946 23.2651 21 22.9999 21C22.7347 21 22.4803 20.8946 22.2928 20.7071C22.1053 20.5196 21.9999 20.2652 21.9999 20V11.752L14.5999 15.288C13.8197 15.7485 12.9289 15.9884 12.0229 15.982C11.0728 15.9835 10.1399 15.7281 9.32291 15.243L1.94291 11.73C1.36279 11.418 0.876721 10.9565 0.535132 10.3934C0.193543 9.83018 0.00888329 9.18585 0.000312565 8.52723C-0.00825816 7.86861 0.159573 7.2197 0.486391 6.64782C0.813209 6.07594 1.28711 5.60194 1.85891 5.275C1.88591 5.259 1.91491 5.244 1.94291 5.23L9.39991 1.672C10.205 1.20966 11.1187 0.970125 12.047 0.978034C12.9754 0.985943 13.8848 1.24101 14.6819 1.717L22.0569 5.23C22.6388 5.55198 23.1252 6.02229 23.4664 6.59312C23.8077 7.16396 23.9918 7.81497 23.9999 8.48ZM12.0219 17.98C10.7425 17.9828 9.48504 17.6475 8.37691 17.008L3.99991 14.919V17.619C4.00051 18.6865 4.34228 19.7259 4.97534 20.5855C5.6084 21.445 6.49962 22.0797 7.51891 22.397C8.97524 22.8151 10.4849 23.0183 11.9999 23C13.5152 23.017 15.0248 22.8125 16.4809 22.393C17.5002 22.0757 18.3914 21.441 19.0245 20.5815C19.6575 19.7219 19.9993 18.6825 19.9999 17.615V14.924L15.5409 17.054C14.4706 17.6689 13.2563 17.9891 12.0219 17.982V17.98Z" fill="#C2C5F3"/>
</g>
</svg>
