<svg width="24" height="24" viewBox="0 0 24 24" fill="none" xmlns="http://www.w3.org/2000/svg">
<g id="Group">
<path id="Vector" d="M12 14.9926C10.3432 14.9926 9 16.3357 9 17.9926V23.9926H15V17.9926C15 16.3357 13.6568 14.9926 12 14.9926Z" fill="#C2C5F3"/>
<path id="Vector_2" d="M17 17.9926V23.9926H21C22.6568 23.9926 24 22.6494 24 20.9926V11.8716C24.0002 11.3521 23.7983 10.8528 23.437 10.4796L14.939 1.29255C13.4396 -0.329796 10.9089 -0.429405 9.28655 1.07003C9.20949 1.14126 9.13526 1.21549 9.06403 1.29255L0.581016 10.4766C0.208733 10.8514 -0.000139454 11.3583 6.98553e-08 11.8866V20.9926C6.98553e-08 22.6494 1.34316 23.9926 3 23.9926H6.99998V17.9926C7.01869 15.2658 9.22027 13.039 11.8784 12.9749C14.6255 12.9086 16.9791 15.1733 17 17.9926Z" fill="#C2C5F3"/>
<path id="Vector_3" d="M12 14.9926C10.3432 14.9926 9 16.3357 9 17.9926V23.9926H15V17.9926C15 16.3357 13.6568 14.9926 12 14.9926Z" fill="#C2C5F3"/>
</g>
</svg>
