<svg width="24" height="24" viewBox="0 0 24 24" fill="none" xmlns="http://www.w3.org/2000/svg">
<g id="Group">
<path id="Vector" d="M12 24C11.4426 24 10.8879 23.9222 10.352 23.769L3.626 21.848C2.58303 21.5463 1.66593 20.9147 1.0122 20.0479C0.35846 19.1811 0.00331419 18.1257 0 17.04L0 3.99997C0 3.73475 0.105357 3.4804 0.292893 3.29286C0.48043 3.10533 0.734784 2.99997 1 2.99997C1.26522 2.99997 1.51957 3.10533 1.70711 3.29286C1.89464 3.4804 2 3.73475 2 3.99997V17.04C2 18.373 2.895 19.559 4.176 19.925L10.902 21.846C11.6203 22.051 12.3817 22.051 13.1 21.846L19.825 19.925C20.4509 19.744 21.0012 19.365 21.3935 18.8449C21.7858 18.3248 21.999 17.6915 22.001 17.04V2.99997C22.001 2.73475 22.1064 2.4804 22.2939 2.29286C22.4814 2.10533 22.7358 1.99997 23.001 1.99997C23.2662 1.99997 23.5206 2.10533 23.7081 2.29286C23.8956 2.4804 24.001 2.73475 24.001 2.99997V17.04C23.9974 18.1256 23.6421 19.1808 22.9884 20.0476C22.3347 20.9144 21.4178 21.546 20.375 21.848L13.649 23.769C13.1131 23.9221 12.5584 23.9998 12.001 24H12ZM18.023 0.154971C17.295 -0.114029 16.484 -0.0470291 15.763 0.240971L14.886 0.590971C14.329 0.8135 13.8515 1.19789 13.5151 1.6945C13.1788 2.19112 12.999 2.77716 12.999 3.37697V17.873C12.3429 18.0412 11.6551 18.0412 10.999 17.873V3.37697C10.999 2.77716 10.8192 2.19112 10.4829 1.6945C10.1465 1.19789 9.669 0.8135 9.112 0.590971L8.234 0.239971C7.513 -0.0480292 6.702 -0.115029 5.974 0.154971C5.39494 0.365864 4.89475 0.749751 4.54127 1.25457C4.18779 1.75938 3.99813 2.3607 3.998 2.97697V15.691C3.99807 16.3427 4.21037 16.9767 4.60279 17.497C4.99521 18.0174 5.5464 18.3958 6.173 18.575L10.349 19.769C11.4263 20.0752 12.5677 20.0752 13.645 19.769L17.821 18.575C18.4477 18.3959 18.999 18.0175 19.3914 17.4972C19.7839 16.9768 19.9961 16.3427 19.996 15.691V2.97697C19.9958 2.36058 19.806 1.75918 19.4523 1.25435C19.0987 0.749516 18.5982 0.3657 18.019 0.154971H18.023Z" fill="#C2C5F3"/>
</g>
</svg>
