<svg width="32" height="32" viewBox="0 0 32 32" fill="none" xmlns="http://www.w3.org/2000/svg">
<g id="icons8-lock 1">
<path id="Vector" d="M16 2.13333C12.4783 2.13333 9.60002 5.0116 9.60002 8.53333V12.0583C7.64028 13.8159 6.40002 16.36 6.40002 19.2C6.40002 24.5024 10.6976 28.8 16 28.8C21.3024 28.8 25.6 24.5024 25.6 19.2C25.6 16.36 24.3598 13.8159 22.4 12.0583V8.53333C22.4 5.14593 19.7163 2.41848 16.3792 2.21041C16.2586 2.16182 16.1301 2.1357 16 2.13333ZM16 4.26666C18.3684 4.26666 20.2667 6.16493 20.2667 8.53333V10.6083C18.9804 9.96837 17.5344 9.6 16 9.6C14.4656 9.6 13.0197 9.96837 11.7334 10.6083V8.53333C11.7334 6.16493 13.6316 4.26666 16 4.26666ZM16 17.0667C17.1787 17.0667 18.1334 18.0213 18.1334 19.2C18.1334 19.9872 17.7014 20.6674 17.0667 21.0375V22.4C17.0667 22.9888 16.5888 23.4667 16 23.4667C15.4112 23.4667 14.9334 22.9888 14.9334 22.4V21.0375C14.2987 20.6684 13.8667 19.9883 13.8667 19.2C13.8667 18.0213 14.8214 17.0667 16 17.0667Z" fill="#C2C5F3"/>
</g>
</svg>
