<svg width="24" height="24" viewBox="0 0 24 24" fill="none" xmlns="http://www.w3.org/2000/svg">
<g id="Group">
<path id="Vector" d="M12 24C11.4426 24 10.8879 23.9222 10.352 23.769L3.626 21.848C2.58303 21.5464 1.66593 20.9148 1.0122 20.0479C0.35846 19.1811 0.00331419 18.1257 0 17.04L0 4C0 3.73479 0.105357 3.48043 0.292893 3.2929C0.48043 3.10536 0.734784 3 1 3C1.26522 3 1.51957 3.10536 1.70711 3.2929C1.89464 3.48043 2 3.73479 2 4V17.04C2 18.373 2.895 19.559 4.176 19.925L10.902 21.846C11.6203 22.051 12.3817 22.051 13.1 21.846L19.825 19.925C20.4509 19.744 21.0012 19.3651 21.3935 18.8449C21.7858 18.3248 21.999 17.6915 22.001 17.04V3C22.001 2.73479 22.1064 2.48043 22.2939 2.29289C22.4814 2.10536 22.7358 2 23.001 2C23.2662 2 23.5206 2.10536 23.7081 2.29289C23.8956 2.48043 24.001 2.73479 24.001 3V17.04C23.9974 18.1256 23.6421 19.1809 22.9884 20.0476C22.3347 20.9144 21.4178 21.5461 20.375 21.848L13.649 23.769C13.1131 23.9221 12.5584 23.9999 12.001 24H12ZM18.023 0.155001C17.295 -0.113999 16.484 -0.0469986 15.763 0.241001L14.886 0.591001C14.329 0.81353 13.8515 1.19792 13.5151 1.69453C13.1788 2.19115 12.999 2.77719 12.999 3.377V17.873C12.3429 18.0412 11.6551 18.0412 10.999 17.873V3.377C10.999 2.77719 10.8192 2.19115 10.4829 1.69453C10.1465 1.19792 9.669 0.81353 9.112 0.591001L8.234 0.240001C7.513 -0.0479986 6.702 -0.114999 5.974 0.155001C5.39494 0.365895 4.89475 0.749781 4.54127 1.2546C4.18779 1.75941 3.99813 2.36073 3.998 2.977V15.691C3.99807 16.3427 4.21037 16.9767 4.60279 17.497C4.99521 18.0174 5.5464 18.3958 6.173 18.575L10.349 19.769C11.4263 20.0753 12.5677 20.0753 13.645 19.769L17.821 18.575C18.4477 18.3959 18.999 18.0176 19.3914 17.4972C19.7839 16.9768 19.9961 16.3428 19.996 15.691V2.977C19.9958 2.36061 19.806 1.75921 19.4523 1.25438C19.0987 0.749547 18.5982 0.365731 18.019 0.155001H18.023Z" fill="#4563FF"/>
</g>
</svg>
