<svg width="24" height="24" viewBox="0 0 24 24" fill="none" xmlns="http://www.w3.org/2000/svg">
<g id="icons8-download 2" opacity="0.5">
<path id="Vector" d="M11.9999 2.40005C6.6983 2.40005 2.3999 6.69846 2.3999 12.0001C2.3999 17.3017 6.6983 21.6001 11.9999 21.6001C17.3015 21.6001 21.5999 17.3017 21.5999 12.0001C21.5999 6.69846 17.3015 2.40005 11.9999 2.40005ZM9.5999 8.00005H12.9374C14.5838 8.00005 15.7093 9.10248 15.7093 10.7657C15.7093 12.4121 14.5402 13.6001 12.8546 13.6001H11.1999V14.4001H12.7999V15.2001H11.1999V16.8001H9.5999V15.2001H7.9999V14.4001H9.5999V13.6001H7.9999V12.8001H9.5999V8.00005ZM11.1999 9.37505V12.1579H12.489C13.4482 12.1579 14.0077 11.6703 14.0077 10.7719C14.0069 9.86233 13.4585 9.37505 12.4937 9.37505H11.1999Z" fill="#C2C5F3"/>
</g>
</svg>
