<svg width="24" height="24" viewBox="0 0 24 24" fill="none" xmlns="http://www.w3.org/2000/svg">
<g id="icons8-download 2">
<path id="Vector" d="M11.0001 2C10.4481 2 10.0001 2.448 10.0001 3V11H6.50008C6.36747 11 6.2403 11.0527 6.14653 11.1464C6.05276 11.2402 6.00008 11.3674 6.00008 11.5C6.0001 11.6326 6.05279 11.7598 6.14657 11.8535C6.15656 11.8637 6.16699 11.8735 6.17782 11.8828L11.2833 16.6973L11.3165 16.7285C11.5016 16.9026 11.746 16.9996 12.0001 17C12.2542 16.9996 12.4986 16.9026 12.6837 16.7285L12.6973 16.7168C12.7006 16.7129 12.7039 16.709 12.7071 16.7051L17.8106 11.8926C17.8208 11.8839 17.8305 11.8747 17.8399 11.8652L17.8477 11.8594C17.8497 11.8574 17.8517 11.8555 17.8536 11.8535C17.9474 11.7598 18.0001 11.6326 18.0001 11.5C18.0001 11.3674 17.9474 11.2402 17.8536 11.1464C17.7599 11.0527 17.6327 11 17.5001 11H14.0001V3C14.0001 2.448 13.5521 2 13.0001 2H12.0001H11.0001ZM3.00008 20C2.86757 19.9981 2.73601 20.0226 2.61304 20.072C2.49007 20.1214 2.37815 20.1948 2.28378 20.2878C2.18941 20.3809 2.11447 20.4918 2.06333 20.614C2.01218 20.7363 1.98584 20.8675 1.98584 21C1.98584 21.1325 2.01218 21.2637 2.06333 21.386C2.11447 21.5082 2.18941 21.6191 2.28378 21.7122C2.37815 21.8052 2.49007 21.8786 2.61304 21.928C2.73601 21.9774 2.86757 22.0019 3.00008 22H21.0001C21.1326 22.0019 21.2642 21.9774 21.3871 21.928C21.5101 21.8786 21.622 21.8052 21.7164 21.7122C21.8108 21.6191 21.8857 21.5082 21.9368 21.386C21.988 21.2637 22.0143 21.1325 22.0143 21C22.0143 20.8675 21.988 20.7363 21.9368 20.614C21.8857 20.4918 21.8108 20.3809 21.7164 20.2878C21.622 20.1948 21.5101 20.1214 21.3871 20.072C21.2642 20.0226 21.1326 19.9981 21.0001 20H3.00008Z" fill="#C2C5F3"/>
</g>
</svg>
