<svg xmlns="http://www.w3.org/2000/svg" width="28" height="28" viewBox="0 0 28 28" fill="none">
    <path d="M8.75 14C8.75 14.9665 7.9665 15.75 7 15.75C6.0335 15.75 5.25 14.9665 5.25 14C5.25 13.0335 6.0335 12.25 7 12.25C7.9665 12.25 8.75 13.0335 8.75 14Z" fill="#0A84FF"/>
    <path d="M15.75 14C15.75 14.9665 14.9665 15.75 14 15.75C13.0335 15.75 12.25 14.9665 12.25 14C12.25 13.0335 13.0335 12.25 14 12.25C14.9665 12.25 15.75 13.0335 15.75 14Z" fill="#0A84FF"/>
    <path d="M22.75 14C22.75 14.9665 21.9665 15.75 21 15.75C20.0335 15.75 19.25 14.9665 19.25 14C19.25 13.0335 20.0335 12.25 21 12.25C21.9665 12.25 22.75 13.0335 22.75 14Z" fill="#0A84FF"/>
</svg>
